<svg width="24" height="24" viewBox="0 0 24 24" fill="none" xmlns="http://www.w3.org/2000/svg">
<path d="M15.1875 7.5C15.1875 7.35082 15.2468 7.20774 15.3523 7.10225C15.4577 6.99676 15.6008 6.9375 15.75 6.9375H21.75C21.8992 6.9375 22.0423 6.99676 22.1477 7.10225C22.2532 7.20774 22.3125 7.35082 22.3125 7.5C22.3125 7.64918 22.2532 7.79226 22.1477 7.89775C22.0423 8.00324 21.8992 8.0625 21.75 8.0625H15.75C15.6008 8.0625 15.4577 8.00324 15.3523 7.89775C15.2468 7.79226 15.1875 7.64918 15.1875 7.5ZM23.0625 14.25C23.0625 14.3992 23.0032 14.5423 22.8977 14.6477C22.7923 14.7532 22.6492 14.8125 22.5 14.8125H15.6094C15.7432 15.5483 16.1307 16.2139 16.7045 16.6935C17.2783 17.1731 18.0021 17.4364 18.75 17.4375C19.1687 17.4401 19.5837 17.3585 19.9703 17.1974C20.3568 17.0364 20.707 16.7992 21 16.5C21.1067 16.3963 21.2497 16.3384 21.3984 16.3384C21.5472 16.3384 21.6901 16.3963 21.7969 16.5C21.8505 16.5516 21.8931 16.6135 21.9222 16.6819C21.9513 16.7504 21.9663 16.824 21.9663 16.8984C21.9663 16.9728 21.9513 17.0465 21.9222 17.1149C21.8931 17.1834 21.8505 17.2453 21.7969 17.2969C21.0908 18.0018 20.162 18.4401 19.169 18.5371C18.1759 18.634 17.18 18.3836 16.3508 17.8285C15.5217 17.2734 14.9107 16.448 14.622 15.4929C14.3333 14.5378 14.3847 13.5121 14.7674 12.5907C15.1502 11.6692 15.8406 10.909 16.7211 10.4396C17.6015 9.97012 18.6175 9.82051 19.5959 10.0162C20.5743 10.212 21.4546 10.7409 22.0867 11.5129C22.7188 12.2849 23.0637 13.2522 23.0625 14.25ZM21.8906 13.6875C21.7623 12.9476 21.3769 12.2768 20.8023 11.7933C20.2278 11.3098 19.5009 11.0446 18.75 11.0446C17.9991 11.0446 17.2722 11.3098 16.6977 11.7933C16.1231 12.2768 15.7377 12.9476 15.6094 13.6875H21.8906ZM12.9375 14.8125C12.9375 15.8071 12.5424 16.7609 11.8392 17.4642C11.1359 18.1674 10.1821 18.5625 9.1875 18.5625H3C2.85082 18.5625 2.70774 18.5032 2.60225 18.3977C2.49676 18.2923 2.4375 18.1492 2.4375 18V6C2.4375 5.85082 2.49676 5.70774 2.60225 5.60225C2.70774 5.49676 2.85082 5.4375 3 5.4375H8.0625C8.73742 5.43741 9.39687 5.63967 9.95568 6.01817C10.5145 6.39666 10.947 6.93401 11.1973 7.5608C11.4476 8.18759 11.5042 8.87503 11.3599 9.53433C11.2155 10.1936 10.8768 10.7945 10.3875 11.2594C11.1308 11.5104 11.7767 11.9883 12.2341 12.6257C12.6916 13.2631 12.9376 14.0279 12.9375 14.8125ZM3.5625 11.0625H8.0625C8.65924 11.0625 9.23153 10.8254 9.65349 10.4035C10.0754 9.98153 10.3125 9.40924 10.3125 8.8125C10.3125 8.21576 10.0754 7.64347 9.65349 7.22151C9.23153 6.79955 8.65924 6.5625 8.0625 6.5625H3.5625V11.0625ZM11.8125 14.8125C11.81 14.1171 11.5327 13.4508 11.0409 12.9591C10.5492 12.4673 9.88293 12.19 9.1875 12.1875H3.5625V17.4375H9.1875C9.88293 17.435 10.5492 17.1577 11.0409 16.6659C11.5327 16.1742 11.81 15.5079 11.8125 14.8125Z" fill="#DAC5A7"/>
</svg>
