<svg width="24" height="24" viewBox="0 0 24 24" fill="none" xmlns="http://www.w3.org/2000/svg">
<path d="M21.5625 12.0657V12C21.5634 10.5787 21.2465 9.17512 20.6349 7.89205C20.0234 6.60898 19.1327 5.47886 18.0281 4.58441L17.9813 4.53753L17.9344 4.50003C16.2468 3.16051 14.1546 2.43336 12 2.43753C10.5677 2.43384 9.15354 2.75772 7.86563 3.38441L7.75313 3.43128C6.44678 4.08276 5.30602 5.02331 4.41747 6.18151C3.52891 7.33972 2.91591 8.68515 2.625 10.1157V10.1344C2.49981 10.7484 2.43699 11.3734 2.4375 12C2.43786 13.4855 2.78463 14.9504 3.45024 16.2784C4.11586 17.6063 5.08199 18.7608 6.27188 19.65L6.36563 19.725H6.38438C8.01445 20.9167 9.98078 21.5601 12 21.5625C13.0828 21.5658 14.158 21.3818 15.1781 21.0188L15.2344 21C17.0718 20.3355 18.6624 19.1256 19.7933 17.5322C20.9242 15.9389 21.5415 14.0382 21.5625 12.0844V12.0657ZM20.4188 11.4657C20.1188 11.4469 19.8094 11.4375 19.5 11.4375C18.0669 11.4358 16.6405 11.6346 15.2625 12.0282C14.9154 10.976 14.4631 9.96149 13.9125 9.00003L13.8656 8.93441C15.2993 8.0897 16.5903 7.02338 17.6906 5.77503C19.3043 7.24582 20.2826 9.28655 20.4188 11.4657ZM16.8094 5.07191C15.7901 6.22917 14.5902 7.21378 13.2563 7.98753C12.1777 6.43392 10.828 5.0874 9.27188 4.01253C10.5235 3.58695 11.8576 3.4611 13.1667 3.64509C14.4759 3.82909 15.7235 4.3178 16.8094 5.07191ZM8.03438 4.55628C9.69414 5.57951 11.1293 6.92855 12.2531 8.52191C10.3008 9.45527 8.16399 9.939 6 9.93753C5.28459 9.93609 4.57022 9.88283 3.8625 9.77816C4.16659 8.66996 4.69335 7.63537 5.41064 6.73755C6.12792 5.83974 7.02067 5.09754 8.03438 4.55628ZM3.5625 12C3.56384 11.6269 3.58889 11.2543 3.6375 10.8844C4.41975 11 5.20926 11.0595 6 11.0625C8.38277 11.0673 10.7345 10.5219 12.8719 9.46878L12.9375 9.57191C13.4528 10.4599 13.8739 11.3994 14.1938 12.375C13.3454 12.6781 12.5264 13.0578 11.7469 13.5094C9.64661 14.7127 7.85803 16.3921 6.525 18.4125C5.59666 17.6217 4.85102 16.6387 4.33954 15.5316C3.82807 14.4245 3.56296 13.2196 3.5625 12ZM7.425 19.0875C9.12618 16.5092 11.601 14.5366 14.4938 13.4532C14.7639 14.5641 14.8992 15.7036 14.8969 16.8469C14.901 17.9227 14.7814 18.9953 14.5406 20.0438C13.3574 20.4188 12.1059 20.5275 10.8758 20.3622C9.64561 20.1969 8.46723 19.7616 7.425 19.0875ZM15.7969 19.5375C15.9466 18.6485 16.0219 17.7485 16.0219 16.8469C16.0231 15.5865 15.872 14.3305 15.5719 13.1063C16.8504 12.7473 18.172 12.5644 19.5 12.5625C19.8094 12.5625 20.1094 12.5719 20.4188 12.5907C20.3148 14.0494 19.8344 15.4563 19.0243 16.6738C18.2142 17.8914 17.1022 18.8781 15.7969 19.5375Z" fill="#DAC5A7"/>
</svg>
