<svg width="24" height="24" viewBox="0 0 24 24" fill="none" xmlns="http://www.w3.org/2000/svg">
<path d="M21.5625 12C21.5625 10.1087 21.0017 8.25991 19.9509 6.68736C18.9002 5.11482 17.4067 3.88917 15.6594 3.16541C13.9121 2.44164 11.9894 2.25227 10.1345 2.62125C8.27951 2.99022 6.57564 3.90096 5.2383 5.2383C3.90096 6.57564 2.99022 8.27951 2.62125 10.1345C2.25227 11.9894 2.44164 13.9121 3.16541 15.6594C3.88917 17.4067 5.11482 18.9002 6.68736 19.9509C8.25991 21.0017 10.1087 21.5625 12 21.5625C14.5354 21.56 16.9662 20.5518 18.759 18.759C20.5518 16.9662 21.56 14.5354 21.5625 12ZM12.5625 20.4188V14.0625H15C15.1492 14.0625 15.2923 14.0032 15.3978 13.8978C15.5032 13.7923 15.5625 13.6492 15.5625 13.5C15.5625 13.3508 15.5032 13.2077 15.3978 13.1023C15.2923 12.9968 15.1492 12.9375 15 12.9375H12.5625V10.5C12.565 10.0532 12.7435 9.62542 13.0595 9.30948C13.3754 8.99355 13.8032 8.81497 14.25 8.8125H15.75C15.8992 8.8125 16.0423 8.75324 16.1478 8.64775C16.2532 8.54226 16.3125 8.39919 16.3125 8.25C16.3125 8.10082 16.2532 7.95775 16.1478 7.85226C16.0423 7.74677 15.8992 7.6875 15.75 7.6875H14.25C13.5048 7.68998 12.7909 7.98709 12.264 8.514C11.7371 9.04091 11.44 9.75484 11.4375 10.5V12.9375H9C8.85082 12.9375 8.70775 12.9968 8.60226 13.1023C8.49677 13.2077 8.4375 13.3508 8.4375 13.5C8.4375 13.6492 8.49677 13.7923 8.60226 13.8978C8.70775 14.0032 8.85082 14.0625 9 14.0625H11.4375V20.4188C9.25334 20.2728 7.21138 19.2837 5.74285 17.6604C4.27432 16.037 3.49419 13.9064 3.5672 11.7186C3.64021 9.5308 4.56064 7.45699 6.13413 5.93514C7.70761 4.41328 9.81097 3.56253 12 3.56253C14.189 3.56253 16.2924 4.41328 17.8659 5.93514C19.4394 7.45699 20.3598 9.5308 20.4328 11.7186C20.5058 13.9064 19.7257 16.037 18.2572 17.6604C16.7886 19.2837 14.7467 20.2728 12.5625 20.4188Z" fill="#DAC5A7"/>
</svg>
