<svg width="1920" height="53" viewBox="0 0 1920 53" fill="none" xmlns="http://www.w3.org/2000/svg">
<rect width="1920" height="53" rx="2" fill="#DAC5A7" fill-opacity="0.1"/>
<path d="M1.04 27.216V28.022H3.887V30.882H4.693V28.022H7.54V27.216H4.693V24.369H3.887V27.216H1.04ZM11.122 27.216V28.022H13.969V30.882H14.775V28.022H17.622V27.216H14.775V24.369H13.969V27.216H11.122ZM21.2041 27.216V28.022H24.0511V30.882H24.8571V28.022H27.7041V27.216H24.8571V24.369H24.0511V27.216H21.2041Z" fill="#DAC5A7"/>
<path d="M63.067 22.692H62.131V32H67.344V31.142H63.067V22.692ZM75.8223 32V31.142H71.1813V27.749H75.3803V26.904H71.1813V23.55H75.8093V22.692H70.2453V32H75.8223ZM78.2478 23.55H81.1078V32H82.0438V23.55H84.9168V22.692H78.2478V23.55ZM89.3344 23.524C89.3344 22.887 88.9444 22.51 88.5024 22.51C88.0474 22.51 87.7354 22.835 87.7354 23.277C87.7354 23.719 88.0344 23.966 88.3724 23.966C88.5284 23.966 88.6454 23.94 88.7234 23.888C88.7234 24.252 88.3854 24.577 87.9304 24.668V25.149C88.7364 25.032 89.3344 24.343 89.3344 23.524ZM92.2009 25.11C92.2009 26.384 92.9679 27.216 94.4239 27.567L95.9969 27.957C96.9979 28.191 97.4659 28.737 97.4659 29.569C97.4659 30.635 96.5949 31.298 95.2299 31.298C93.9559 31.298 93.0979 30.661 93.0459 29.686H92.0839C92.2009 31.207 93.4229 32.156 95.2299 32.156C97.1539 32.156 98.4019 31.129 98.4019 29.517C98.4019 28.256 97.6479 27.424 96.1919 27.073L94.5929 26.683C93.6179 26.436 93.1369 25.916 93.1369 25.097C93.1369 24.044 93.9949 23.368 95.3079 23.368C96.4779 23.368 97.1929 23.966 97.2969 25.019H98.2459C98.1029 23.459 96.9979 22.523 95.3209 22.523C93.4489 22.523 92.2009 23.55 92.2009 25.11ZM105.716 23.55H108.576V32H109.512V23.55H112.385V22.692H105.716V23.55ZM114.322 32L115.232 29.53H119.522L120.432 32H121.407L117.949 22.692H116.792L113.373 32H114.322ZM117.247 24.005C117.299 23.875 117.351 23.706 117.364 23.628C117.377 23.719 117.442 23.875 117.481 24.005L119.223 28.711H115.518L117.247 24.005ZM125.137 22.692H124.201V32H129.414V31.142H125.137V22.692ZM133.252 22.692H132.316V32H133.252V29.686L135.085 27.411L137.815 32H138.907L135.696 26.631L138.855 22.692H137.737L133.252 28.295V22.692Z" fill="#DAC5A7"/>
<path d="M173.04 27.216V28.022H175.887V30.882H176.693V28.022H179.54V27.216H176.693V24.369H175.887V27.216H173.04ZM183.122 27.216V28.022H185.969V30.882H186.775V28.022H189.622V27.216H186.775V24.369H185.969V27.216H183.122ZM193.204 27.216V28.022H196.051V30.882H196.857V28.022H199.704V27.216H196.857V24.369H196.051V27.216H193.204Z" fill="#DAC5A7"/>
<path d="M235.067 22.692H234.131V32H239.344V31.142H235.067V22.692ZM247.822 32V31.142H243.181V27.749H247.38V26.904H243.181V23.55H247.809V22.692H242.245V32H247.822ZM250.248 23.55H253.108V32H254.044V23.55H256.917V22.692H250.248V23.55ZM261.334 23.524C261.334 22.887 260.944 22.51 260.502 22.51C260.047 22.51 259.735 22.835 259.735 23.277C259.735 23.719 260.034 23.966 260.372 23.966C260.528 23.966 260.645 23.94 260.723 23.888C260.723 24.252 260.385 24.577 259.93 24.668V25.149C260.736 25.032 261.334 24.343 261.334 23.524ZM264.201 25.11C264.201 26.384 264.968 27.216 266.424 27.567L267.997 27.957C268.998 28.191 269.466 28.737 269.466 29.569C269.466 30.635 268.595 31.298 267.23 31.298C265.956 31.298 265.098 30.661 265.046 29.686H264.084C264.201 31.207 265.423 32.156 267.23 32.156C269.154 32.156 270.402 31.129 270.402 29.517C270.402 28.256 269.648 27.424 268.192 27.073L266.593 26.683C265.618 26.436 265.137 25.916 265.137 25.097C265.137 24.044 265.995 23.368 267.308 23.368C268.478 23.368 269.193 23.966 269.297 25.019H270.246C270.103 23.459 268.998 22.523 267.321 22.523C265.449 22.523 264.201 23.55 264.201 25.11ZM277.716 23.55H280.576V32H281.512V23.55H284.385V22.692H277.716V23.55ZM286.322 32L287.232 29.53H291.522L292.432 32H293.407L289.949 22.692H288.792L285.373 32H286.322ZM289.247 24.005C289.299 23.875 289.351 23.706 289.364 23.628C289.377 23.719 289.442 23.875 289.481 24.005L291.223 28.711H287.518L289.247 24.005ZM297.137 22.692H296.201V32H301.414V31.142H297.137V22.692ZM305.252 22.692H304.316V32H305.252V29.686L307.085 27.411L309.815 32H310.907L307.696 26.631L310.855 22.692H309.737L305.252 28.295V22.692Z" fill="#DAC5A7"/>
<path d="M345.04 27.216V28.022H347.887V30.882H348.693V28.022H351.54V27.216H348.693V24.369H347.887V27.216H345.04ZM355.122 27.216V28.022H357.969V30.882H358.775V28.022H361.622V27.216H358.775V24.369H357.969V27.216H355.122ZM365.204 27.216V28.022H368.051V30.882H368.857V28.022H371.704V27.216H368.857V24.369H368.051V27.216H365.204Z" fill="#DAC5A7"/>
<path d="M407.067 22.692H406.131V32H411.344V31.142H407.067V22.692ZM419.822 32V31.142H415.181V27.749H419.38V26.904H415.181V23.55H419.809V22.692H414.245V32H419.822ZM422.248 23.55H425.108V32H426.044V23.55H428.917V22.692H422.248V23.55ZM433.334 23.524C433.334 22.887 432.944 22.51 432.502 22.51C432.047 22.51 431.735 22.835 431.735 23.277C431.735 23.719 432.034 23.966 432.372 23.966C432.528 23.966 432.645 23.94 432.723 23.888C432.723 24.252 432.385 24.577 431.93 24.668V25.149C432.736 25.032 433.334 24.343 433.334 23.524ZM436.201 25.11C436.201 26.384 436.968 27.216 438.424 27.567L439.997 27.957C440.998 28.191 441.466 28.737 441.466 29.569C441.466 30.635 440.595 31.298 439.23 31.298C437.956 31.298 437.098 30.661 437.046 29.686H436.084C436.201 31.207 437.423 32.156 439.23 32.156C441.154 32.156 442.402 31.129 442.402 29.517C442.402 28.256 441.648 27.424 440.192 27.073L438.593 26.683C437.618 26.436 437.137 25.916 437.137 25.097C437.137 24.044 437.995 23.368 439.308 23.368C440.478 23.368 441.193 23.966 441.297 25.019H442.246C442.103 23.459 440.998 22.523 439.321 22.523C437.449 22.523 436.201 23.55 436.201 25.11ZM449.716 23.55H452.576V32H453.512V23.55H456.385V22.692H449.716V23.55ZM458.322 32L459.232 29.53H463.522L464.432 32H465.407L461.949 22.692H460.792L457.373 32H458.322ZM461.247 24.005C461.299 23.875 461.351 23.706 461.364 23.628C461.377 23.719 461.442 23.875 461.481 24.005L463.223 28.711H459.518L461.247 24.005ZM469.137 22.692H468.201V32H473.414V31.142H469.137V22.692ZM477.252 22.692H476.316V32H477.252V29.686L479.085 27.411L481.815 32H482.907L479.696 26.631L482.855 22.692H481.737L477.252 28.295V22.692Z" fill="#DAC5A7"/>
<path d="M517.04 27.216V28.022H519.887V30.882H520.693V28.022H523.54V27.216H520.693V24.369H519.887V27.216H517.04ZM527.122 27.216V28.022H529.969V30.882H530.775V28.022H533.622V27.216H530.775V24.369H529.969V27.216H527.122ZM537.204 27.216V28.022H540.051V30.882H540.857V28.022H543.704V27.216H540.857V24.369H540.051V27.216H537.204Z" fill="#DAC5A7"/>
<path d="M579.067 22.692H578.131V32H583.344V31.142H579.067V22.692ZM591.822 32V31.142H587.181V27.749H591.38V26.904H587.181V23.55H591.809V22.692H586.245V32H591.822ZM594.248 23.55H597.108V32H598.044V23.55H600.917V22.692H594.248V23.55ZM605.334 23.524C605.334 22.887 604.944 22.51 604.502 22.51C604.047 22.51 603.735 22.835 603.735 23.277C603.735 23.719 604.034 23.966 604.372 23.966C604.528 23.966 604.645 23.94 604.723 23.888C604.723 24.252 604.385 24.577 603.93 24.668V25.149C604.736 25.032 605.334 24.343 605.334 23.524ZM608.201 25.11C608.201 26.384 608.968 27.216 610.424 27.567L611.997 27.957C612.998 28.191 613.466 28.737 613.466 29.569C613.466 30.635 612.595 31.298 611.23 31.298C609.956 31.298 609.098 30.661 609.046 29.686H608.084C608.201 31.207 609.423 32.156 611.23 32.156C613.154 32.156 614.402 31.129 614.402 29.517C614.402 28.256 613.648 27.424 612.192 27.073L610.593 26.683C609.618 26.436 609.137 25.916 609.137 25.097C609.137 24.044 609.995 23.368 611.308 23.368C612.478 23.368 613.193 23.966 613.297 25.019H614.246C614.103 23.459 612.998 22.523 611.321 22.523C609.449 22.523 608.201 23.55 608.201 25.11ZM621.716 23.55H624.576V32H625.512V23.55H628.385V22.692H621.716V23.55ZM630.322 32L631.232 29.53H635.522L636.432 32H637.407L633.949 22.692H632.792L629.373 32H630.322ZM633.247 24.005C633.299 23.875 633.351 23.706 633.364 23.628C633.377 23.719 633.442 23.875 633.481 24.005L635.223 28.711H631.518L633.247 24.005ZM641.137 22.692H640.201V32H645.414V31.142H641.137V22.692ZM649.252 22.692H648.316V32H649.252V29.686L651.085 27.411L653.815 32H654.907L651.696 26.631L654.855 22.692H653.737L649.252 28.295V22.692Z" fill="#DAC5A7"/>
<path d="M689.04 27.216V28.022H691.887V30.882H692.693V28.022H695.54V27.216H692.693V24.369H691.887V27.216H689.04ZM699.122 27.216V28.022H701.969V30.882H702.775V28.022H705.622V27.216H702.775V24.369H701.969V27.216H699.122ZM709.204 27.216V28.022H712.051V30.882H712.857V28.022H715.704V27.216H712.857V24.369H712.051V27.216H709.204Z" fill="#DAC5A7"/>
<path d="M751.067 22.692H750.131V32H755.344V31.142H751.067V22.692ZM763.822 32V31.142H759.181V27.749H763.38V26.904H759.181V23.55H763.809V22.692H758.245V32H763.822ZM766.248 23.55H769.108V32H770.044V23.55H772.917V22.692H766.248V23.55ZM777.334 23.524C777.334 22.887 776.944 22.51 776.502 22.51C776.047 22.51 775.735 22.835 775.735 23.277C775.735 23.719 776.034 23.966 776.372 23.966C776.528 23.966 776.645 23.94 776.723 23.888C776.723 24.252 776.385 24.577 775.93 24.668V25.149C776.736 25.032 777.334 24.343 777.334 23.524ZM780.201 25.11C780.201 26.384 780.968 27.216 782.424 27.567L783.997 27.957C784.998 28.191 785.466 28.737 785.466 29.569C785.466 30.635 784.595 31.298 783.23 31.298C781.956 31.298 781.098 30.661 781.046 29.686H780.084C780.201 31.207 781.423 32.156 783.23 32.156C785.154 32.156 786.402 31.129 786.402 29.517C786.402 28.256 785.648 27.424 784.192 27.073L782.593 26.683C781.618 26.436 781.137 25.916 781.137 25.097C781.137 24.044 781.995 23.368 783.308 23.368C784.478 23.368 785.193 23.966 785.297 25.019H786.246C786.103 23.459 784.998 22.523 783.321 22.523C781.449 22.523 780.201 23.55 780.201 25.11ZM793.716 23.55H796.576V32H797.512V23.55H800.385V22.692H793.716V23.55ZM802.322 32L803.232 29.53H807.522L808.432 32H809.407L805.949 22.692H804.792L801.373 32H802.322ZM805.247 24.005C805.299 23.875 805.351 23.706 805.364 23.628C805.377 23.719 805.442 23.875 805.481 24.005L807.223 28.711H803.518L805.247 24.005ZM813.137 22.692H812.201V32H817.414V31.142H813.137V22.692ZM821.252 22.692H820.316V32H821.252V29.686L823.085 27.411L825.815 32H826.907L823.696 26.631L826.855 22.692H825.737L821.252 28.295V22.692Z" fill="#DAC5A7"/>
<path d="M861.04 27.216V28.022H863.887V30.882H864.693V28.022H867.54V27.216H864.693V24.369H863.887V27.216H861.04ZM871.122 27.216V28.022H873.969V30.882H874.775V28.022H877.622V27.216H874.775V24.369H873.969V27.216H871.122ZM881.204 27.216V28.022H884.051V30.882H884.857V28.022H887.704V27.216H884.857V24.369H884.051V27.216H881.204Z" fill="#DAC5A7"/>
<path d="M923.067 22.692H922.131V32H927.344V31.142H923.067V22.692ZM935.822 32V31.142H931.181V27.749H935.38V26.904H931.181V23.55H935.809V22.692H930.245V32H935.822ZM938.248 23.55H941.108V32H942.044V23.55H944.917V22.692H938.248V23.55ZM949.334 23.524C949.334 22.887 948.944 22.51 948.502 22.51C948.047 22.51 947.735 22.835 947.735 23.277C947.735 23.719 948.034 23.966 948.372 23.966C948.528 23.966 948.645 23.94 948.723 23.888C948.723 24.252 948.385 24.577 947.93 24.668V25.149C948.736 25.032 949.334 24.343 949.334 23.524ZM952.201 25.11C952.201 26.384 952.968 27.216 954.424 27.567L955.997 27.957C956.998 28.191 957.466 28.737 957.466 29.569C957.466 30.635 956.595 31.298 955.23 31.298C953.956 31.298 953.098 30.661 953.046 29.686H952.084C952.201 31.207 953.423 32.156 955.23 32.156C957.154 32.156 958.402 31.129 958.402 29.517C958.402 28.256 957.648 27.424 956.192 27.073L954.593 26.683C953.618 26.436 953.137 25.916 953.137 25.097C953.137 24.044 953.995 23.368 955.308 23.368C956.478 23.368 957.193 23.966 957.297 25.019H958.246C958.103 23.459 956.998 22.523 955.321 22.523C953.449 22.523 952.201 23.55 952.201 25.11ZM965.716 23.55H968.576V32H969.512V23.55H972.385V22.692H965.716V23.55ZM974.322 32L975.232 29.53H979.522L980.432 32H981.407L977.949 22.692H976.792L973.373 32H974.322ZM977.247 24.005C977.299 23.875 977.351 23.706 977.364 23.628C977.377 23.719 977.442 23.875 977.481 24.005L979.223 28.711H975.518L977.247 24.005ZM985.137 22.692H984.201V32H989.414V31.142H985.137V22.692ZM993.252 22.692H992.316V32H993.252V29.686L995.085 27.411L997.815 32H998.907L995.696 26.631L998.855 22.692H997.737L993.252 28.295V22.692Z" fill="#DAC5A7"/>
<path d="M1033.04 27.216V28.022H1035.89V30.882H1036.69V28.022H1039.54V27.216H1036.69V24.369H1035.89V27.216H1033.04ZM1043.12 27.216V28.022H1045.97V30.882H1046.78V28.022H1049.62V27.216H1046.78V24.369H1045.97V27.216H1043.12ZM1053.2 27.216V28.022H1056.05V30.882H1056.86V28.022H1059.7V27.216H1056.86V24.369H1056.05V27.216H1053.2Z" fill="#DAC5A7"/>
<path d="M1095.07 22.692H1094.13V32H1099.34V31.142H1095.07V22.692ZM1107.82 32V31.142H1103.18V27.749H1107.38V26.904H1103.18V23.55H1107.81V22.692H1102.25V32H1107.82ZM1110.25 23.55H1113.11V32H1114.04V23.55H1116.92V22.692H1110.25V23.55ZM1121.33 23.524C1121.33 22.887 1120.94 22.51 1120.5 22.51C1120.05 22.51 1119.74 22.835 1119.74 23.277C1119.74 23.719 1120.03 23.966 1120.37 23.966C1120.53 23.966 1120.65 23.94 1120.72 23.888C1120.72 24.252 1120.39 24.577 1119.93 24.668V25.149C1120.74 25.032 1121.33 24.343 1121.33 23.524ZM1124.2 25.11C1124.2 26.384 1124.97 27.216 1126.42 27.567L1128 27.957C1129 28.191 1129.47 28.737 1129.47 29.569C1129.47 30.635 1128.59 31.298 1127.23 31.298C1125.96 31.298 1125.1 30.661 1125.05 29.686H1124.08C1124.2 31.207 1125.42 32.156 1127.23 32.156C1129.15 32.156 1130.4 31.129 1130.4 29.517C1130.4 28.256 1129.65 27.424 1128.19 27.073L1126.59 26.683C1125.62 26.436 1125.14 25.916 1125.14 25.097C1125.14 24.044 1125.99 23.368 1127.31 23.368C1128.48 23.368 1129.19 23.966 1129.3 25.019H1130.25C1130.1 23.459 1129 22.523 1127.32 22.523C1125.45 22.523 1124.2 23.55 1124.2 25.11ZM1137.72 23.55H1140.58V32H1141.51V23.55H1144.38V22.692H1137.72V23.55ZM1146.32 32L1147.23 29.53H1151.52L1152.43 32H1153.41L1149.95 22.692H1148.79L1145.37 32H1146.32ZM1149.25 24.005C1149.3 23.875 1149.35 23.706 1149.36 23.628C1149.38 23.719 1149.44 23.875 1149.48 24.005L1151.22 28.711H1147.52L1149.25 24.005ZM1157.14 22.692H1156.2V32H1161.41V31.142H1157.14V22.692ZM1165.25 22.692H1164.32V32H1165.25V29.686L1167.08 27.411L1169.81 32H1170.91L1167.7 26.631L1170.85 22.692H1169.74L1165.25 28.295V22.692Z" fill="#DAC5A7"/>
<path d="M1205.04 27.216V28.022H1207.89V30.882H1208.69V28.022H1211.54V27.216H1208.69V24.369H1207.89V27.216H1205.04ZM1215.12 27.216V28.022H1217.97V30.882H1218.78V28.022H1221.62V27.216H1218.78V24.369H1217.97V27.216H1215.12ZM1225.2 27.216V28.022H1228.05V30.882H1228.86V28.022H1231.7V27.216H1228.86V24.369H1228.05V27.216H1225.2Z" fill="#DAC5A7"/>
<path d="M1267.07 22.692H1266.13V32H1271.34V31.142H1267.07V22.692ZM1279.82 32V31.142H1275.18V27.749H1279.38V26.904H1275.18V23.55H1279.81V22.692H1274.25V32H1279.82ZM1282.25 23.55H1285.11V32H1286.04V23.55H1288.92V22.692H1282.25V23.55ZM1293.33 23.524C1293.33 22.887 1292.94 22.51 1292.5 22.51C1292.05 22.51 1291.74 22.835 1291.74 23.277C1291.74 23.719 1292.03 23.966 1292.37 23.966C1292.53 23.966 1292.65 23.94 1292.72 23.888C1292.72 24.252 1292.39 24.577 1291.93 24.668V25.149C1292.74 25.032 1293.33 24.343 1293.33 23.524ZM1296.2 25.11C1296.2 26.384 1296.97 27.216 1298.42 27.567L1300 27.957C1301 28.191 1301.47 28.737 1301.47 29.569C1301.47 30.635 1300.59 31.298 1299.23 31.298C1297.96 31.298 1297.1 30.661 1297.05 29.686H1296.08C1296.2 31.207 1297.42 32.156 1299.23 32.156C1301.15 32.156 1302.4 31.129 1302.4 29.517C1302.4 28.256 1301.65 27.424 1300.19 27.073L1298.59 26.683C1297.62 26.436 1297.14 25.916 1297.14 25.097C1297.14 24.044 1297.99 23.368 1299.31 23.368C1300.48 23.368 1301.19 23.966 1301.3 25.019H1302.25C1302.1 23.459 1301 22.523 1299.32 22.523C1297.45 22.523 1296.2 23.55 1296.2 25.11ZM1309.72 23.55H1312.58V32H1313.51V23.55H1316.38V22.692H1309.72V23.55ZM1318.32 32L1319.23 29.53H1323.52L1324.43 32H1325.41L1321.95 22.692H1320.79L1317.37 32H1318.32ZM1321.25 24.005C1321.3 23.875 1321.35 23.706 1321.36 23.628C1321.38 23.719 1321.44 23.875 1321.48 24.005L1323.22 28.711H1319.52L1321.25 24.005ZM1329.14 22.692H1328.2V32H1333.41V31.142H1329.14V22.692ZM1337.25 22.692H1336.32V32H1337.25V29.686L1339.08 27.411L1341.81 32H1342.91L1339.7 26.631L1342.85 22.692H1341.74L1337.25 28.295V22.692Z" fill="#DAC5A7"/>
<path d="M1377.04 27.216V28.022H1379.89V30.882H1380.69V28.022H1383.54V27.216H1380.69V24.369H1379.89V27.216H1377.04ZM1387.12 27.216V28.022H1389.97V30.882H1390.78V28.022H1393.62V27.216H1390.78V24.369H1389.97V27.216H1387.12ZM1397.2 27.216V28.022H1400.05V30.882H1400.86V28.022H1403.7V27.216H1400.86V24.369H1400.05V27.216H1397.2Z" fill="#DAC5A7"/>
<path d="M1439.07 22.692H1438.13V32H1443.34V31.142H1439.07V22.692ZM1451.82 32V31.142H1447.18V27.749H1451.38V26.904H1447.18V23.55H1451.81V22.692H1446.25V32H1451.82ZM1454.25 23.55H1457.11V32H1458.04V23.55H1460.92V22.692H1454.25V23.55ZM1465.33 23.524C1465.33 22.887 1464.94 22.51 1464.5 22.51C1464.05 22.51 1463.74 22.835 1463.74 23.277C1463.74 23.719 1464.03 23.966 1464.37 23.966C1464.53 23.966 1464.65 23.94 1464.72 23.888C1464.72 24.252 1464.39 24.577 1463.93 24.668V25.149C1464.74 25.032 1465.33 24.343 1465.33 23.524ZM1468.2 25.11C1468.2 26.384 1468.97 27.216 1470.42 27.567L1472 27.957C1473 28.191 1473.47 28.737 1473.47 29.569C1473.47 30.635 1472.59 31.298 1471.23 31.298C1469.96 31.298 1469.1 30.661 1469.05 29.686H1468.08C1468.2 31.207 1469.42 32.156 1471.23 32.156C1473.15 32.156 1474.4 31.129 1474.4 29.517C1474.4 28.256 1473.65 27.424 1472.19 27.073L1470.59 26.683C1469.62 26.436 1469.14 25.916 1469.14 25.097C1469.14 24.044 1469.99 23.368 1471.31 23.368C1472.48 23.368 1473.19 23.966 1473.3 25.019H1474.25C1474.1 23.459 1473 22.523 1471.32 22.523C1469.45 22.523 1468.2 23.55 1468.2 25.11ZM1481.72 23.55H1484.58V32H1485.51V23.55H1488.38V22.692H1481.72V23.55ZM1490.32 32L1491.23 29.53H1495.52L1496.43 32H1497.41L1493.95 22.692H1492.79L1489.37 32H1490.32ZM1493.25 24.005C1493.3 23.875 1493.35 23.706 1493.36 23.628C1493.38 23.719 1493.44 23.875 1493.48 24.005L1495.22 28.711H1491.52L1493.25 24.005ZM1501.14 22.692H1500.2V32H1505.41V31.142H1501.14V22.692ZM1509.25 22.692H1508.32V32H1509.25V29.686L1511.08 27.411L1513.81 32H1514.91L1511.7 26.631L1514.85 22.692H1513.74L1509.25 28.295V22.692Z" fill="#DAC5A7"/>
<path d="M1549.04 27.216V28.022H1551.89V30.882H1552.69V28.022H1555.54V27.216H1552.69V24.369H1551.89V27.216H1549.04ZM1559.12 27.216V28.022H1561.97V30.882H1562.78V28.022H1565.62V27.216H1562.78V24.369H1561.97V27.216H1559.12ZM1569.2 27.216V28.022H1572.05V30.882H1572.86V28.022H1575.7V27.216H1572.86V24.369H1572.05V27.216H1569.2Z" fill="#DAC5A7"/>
<path d="M1611.07 22.692H1610.13V32H1615.34V31.142H1611.07V22.692ZM1623.82 32V31.142H1619.18V27.749H1623.38V26.904H1619.18V23.55H1623.81V22.692H1618.25V32H1623.82ZM1626.25 23.55H1629.11V32H1630.04V23.55H1632.92V22.692H1626.25V23.55ZM1637.33 23.524C1637.33 22.887 1636.94 22.51 1636.5 22.51C1636.05 22.51 1635.74 22.835 1635.74 23.277C1635.74 23.719 1636.03 23.966 1636.37 23.966C1636.53 23.966 1636.65 23.94 1636.72 23.888C1636.72 24.252 1636.39 24.577 1635.93 24.668V25.149C1636.74 25.032 1637.33 24.343 1637.33 23.524ZM1640.2 25.11C1640.2 26.384 1640.97 27.216 1642.42 27.567L1644 27.957C1645 28.191 1645.47 28.737 1645.47 29.569C1645.47 30.635 1644.59 31.298 1643.23 31.298C1641.96 31.298 1641.1 30.661 1641.05 29.686H1640.08C1640.2 31.207 1641.42 32.156 1643.23 32.156C1645.15 32.156 1646.4 31.129 1646.4 29.517C1646.4 28.256 1645.65 27.424 1644.19 27.073L1642.59 26.683C1641.62 26.436 1641.14 25.916 1641.14 25.097C1641.14 24.044 1641.99 23.368 1643.31 23.368C1644.48 23.368 1645.19 23.966 1645.3 25.019H1646.25C1646.1 23.459 1645 22.523 1643.32 22.523C1641.45 22.523 1640.2 23.55 1640.2 25.11ZM1653.72 23.55H1656.58V32H1657.51V23.55H1660.38V22.692H1653.72V23.55ZM1662.32 32L1663.23 29.53H1667.52L1668.43 32H1669.41L1665.95 22.692H1664.79L1661.37 32H1662.32ZM1665.25 24.005C1665.3 23.875 1665.35 23.706 1665.36 23.628C1665.38 23.719 1665.44 23.875 1665.48 24.005L1667.22 28.711H1663.52L1665.25 24.005ZM1673.14 22.692H1672.2V32H1677.41V31.142H1673.14V22.692ZM1681.25 22.692H1680.32V32H1681.25V29.686L1683.08 27.411L1685.81 32H1686.91L1683.7 26.631L1686.85 22.692H1685.74L1681.25 28.295V22.692Z" fill="#DAC5A7"/>
<path d="M1721.04 27.216V28.022H1723.89V30.882H1724.69V28.022H1727.54V27.216H1724.69V24.369H1723.89V27.216H1721.04ZM1731.12 27.216V28.022H1733.97V30.882H1734.78V28.022H1737.62V27.216H1734.78V24.369H1733.97V27.216H1731.12ZM1741.2 27.216V28.022H1744.05V30.882H1744.86V28.022H1747.7V27.216H1744.86V24.369H1744.05V27.216H1741.2Z" fill="#DAC5A7"/>
<path d="M1783.07 22.692H1782.13V32H1787.34V31.142H1783.07V22.692ZM1795.82 32V31.142H1791.18V27.749H1795.38V26.904H1791.18V23.55H1795.81V22.692H1790.25V32H1795.82ZM1798.25 23.55H1801.11V32H1802.04V23.55H1804.92V22.692H1798.25V23.55ZM1809.33 23.524C1809.33 22.887 1808.94 22.51 1808.5 22.51C1808.05 22.51 1807.74 22.835 1807.74 23.277C1807.74 23.719 1808.03 23.966 1808.37 23.966C1808.53 23.966 1808.65 23.94 1808.72 23.888C1808.72 24.252 1808.39 24.577 1807.93 24.668V25.149C1808.74 25.032 1809.33 24.343 1809.33 23.524ZM1812.2 25.11C1812.2 26.384 1812.97 27.216 1814.42 27.567L1816 27.957C1817 28.191 1817.47 28.737 1817.47 29.569C1817.47 30.635 1816.59 31.298 1815.23 31.298C1813.96 31.298 1813.1 30.661 1813.05 29.686H1812.08C1812.2 31.207 1813.42 32.156 1815.23 32.156C1817.15 32.156 1818.4 31.129 1818.4 29.517C1818.4 28.256 1817.65 27.424 1816.19 27.073L1814.59 26.683C1813.62 26.436 1813.14 25.916 1813.14 25.097C1813.14 24.044 1813.99 23.368 1815.31 23.368C1816.48 23.368 1817.19 23.966 1817.3 25.019H1818.25C1818.1 23.459 1817 22.523 1815.32 22.523C1813.45 22.523 1812.2 23.55 1812.2 25.11ZM1825.72 23.55H1828.58V32H1829.51V23.55H1832.38V22.692H1825.72V23.55ZM1834.32 32L1835.23 29.53H1839.52L1840.43 32H1841.41L1837.95 22.692H1836.79L1833.37 32H1834.32ZM1837.25 24.005C1837.3 23.875 1837.35 23.706 1837.36 23.628C1837.38 23.719 1837.44 23.875 1837.48 24.005L1839.22 28.711H1835.52L1837.25 24.005ZM1845.14 22.692H1844.2V32H1849.41V31.142H1845.14V22.692ZM1853.25 22.692H1852.32V32H1853.25V29.686L1855.08 27.411L1857.81 32H1858.91L1855.7 26.631L1858.85 22.692H1857.74L1853.25 28.295V22.692Z" fill="#DAC5A7"/>
<path d="M1893.04 27.216V28.022H1895.89V30.882H1896.69V28.022H1899.54V27.216H1896.69V24.369H1895.89V27.216H1893.04ZM1903.12 27.216V28.022H1905.97V30.882H1906.78V28.022H1909.62V27.216H1906.78V24.369H1905.97V27.216H1903.12ZM1913.2 27.216V28.022H1916.05V30.882H1916.86V28.022H1919.7V27.216H1916.86V24.369H1916.05V27.216H1913.2Z" fill="#DAC5A7"/>
</svg>
