<svg width="53" height="35" viewBox="0 0 53 35" fill="none" xmlns="http://www.w3.org/2000/svg">
<g clip-path="url(#clip0_1301_3337)">
<path d="M49.2188 1.09375C49.2188 1.69781 49.7084 2.1875 50.3125 2.1875H51.4062C52.0103 2.1875 52.5 1.69781 52.5 1.09375C52.5 0.489689 52.0103 0 51.4062 0H50.3125C49.7084 0 49.2188 0.489689 49.2188 1.09375Z" fill="#DAC5A7"/>
<path d="M17.5 35H22.8133L21.2664 33.4532C20.8562 33.043 20.2998 32.8125 19.7197 32.8125H17.5C9.04313 32.8125 2.1875 25.9569 2.1875 17.5C2.1875 9.04313 9.04313 2.18751 17.5 2.1875H35C43.4569 2.1875 50.3125 9.04313 50.3125 17.5C50.3125 25.9569 43.4569 32.8125 35 32.8125H28.4536C27.5833 32.8125 26.7487 32.4668 26.1334 31.8515L24.3212 30.0393C23.2957 29.0137 21.9046 28.4375 20.4542 28.4375H17.5C11.4593 28.4375 6.5625 23.5406 6.5625 17.5C6.5625 11.4593 11.4593 6.5625 17.5 6.5625H35C41.0406 6.5625 45.9375 11.4593 45.9375 17.5C45.9375 23.5406 41.0406 28.4375 35 28.4375H30.7966C29.9263 28.4375 29.0917 28.0918 28.4763 27.4765L26.6641 25.6643C25.6386 24.6387 24.2476 24.0625 22.7972 24.0625H17.5C13.8757 24.0625 10.9375 21.1243 10.9375 17.5C10.9375 13.8757 13.8757 10.9375 17.5 10.9375H35C38.6243 10.9375 41.5625 13.8757 41.5625 17.5C41.5625 21.0802 38.6956 23.9908 35.1323 24.0612L35.1316 24.0625H33.531C32.6607 24.0625 31.8261 23.7168 31.2107 23.1015L29.3985 21.2893C28.557 20.4477 27.4695 19.9088 26.3049 19.7424L26.25 19.6875H17.5C16.2919 19.6875 15.3125 18.7081 15.3125 17.5C15.3125 16.2919 16.2919 15.3125 17.5 15.3125H35C36.2081 15.3125 37.1875 16.2919 37.1875 17.5C37.1875 18.7081 36.2081 19.6875 35 19.6875H30.625L32.1718 21.2343C32.582 21.6445 33.1384 21.875 33.7186 21.875H35C37.4162 21.875 39.375 19.9162 39.375 17.5C39.375 15.0838 37.4162 13.125 35 13.125H17.5C15.0838 13.125 13.125 15.0838 13.125 17.5C13.125 19.9162 15.0838 21.875 17.5 21.875H25.5315C26.4018 21.875 27.2364 22.2207 27.8518 22.836L29.664 24.6482C30.6896 25.6738 32.0806 26.25 33.531 26.25H35.5469V26.2332C40.1246 25.9509 43.75 22.1488 43.75 17.5C43.75 12.6676 39.8325 8.75 35 8.75H17.5C12.6676 8.75 8.75 12.6676 8.75 17.5C8.75 22.3325 12.6676 26.25 17.5 26.25H22.7972C23.6674 26.25 24.502 26.5957 25.1174 27.211L26.9296 29.0232C27.9552 30.0488 29.3462 30.625 30.7966 30.625H35C42.2488 30.625 48.125 24.7488 48.125 17.5C48.125 10.2512 42.2488 4.375 35 4.375H17.5C10.2512 4.375 4.375 10.2512 4.375 17.5C4.375 24.7488 10.2512 30.625 17.5 30.625H20.4542C21.3244 30.625 22.159 30.9707 22.7744 31.586L24.5866 33.3982C25.6122 34.4238 27.0032 35 28.4536 35H35C44.665 35 52.5 27.165 52.5 17.5C52.5 7.83501 44.665 -8.44939e-07 35 0L17.5 3.61606e-06C7.83501 4.461e-06 -8.44939e-07 7.83502 0 17.5C8.44939e-07 27.165 7.83502 35 17.5 35Z" fill="#DAC5A7"/>
</g>
<defs>
<clipPath id="clip0_1301_3337">
<rect width="52.5" height="35" fill="white"/>
</clipPath>
</defs>
</svg>
