<svg width="61" height="28" viewBox="0 0 61 28" fill="none" xmlns="http://www.w3.org/2000/svg">
<g filter="url(#filter0_d_2857_733)">
<rect x="4.5" y="0.5" width="51.1739" height="19" stroke="black" shape-rendering="crispEdges"/>
<path d="M10.502 19.0982C12.8193 19.0982 14.7083 17.8255 15.6402 15.9673V18.8437H17.1263V12.6328C17.1263 9.01821 14.3053 6.21821 10.7035 6.21821C7.05134 6.21821 4.30591 9.12003 4.30591 12.6328C4.30591 16.1964 6.97577 19.0982 10.502 19.0982ZM10.7035 17.5964C8.00846 17.5964 5.86753 15.3564 5.86753 12.6582C5.86753 9.96003 8.00846 7.72003 10.7035 7.72003C13.4237 7.72003 15.5647 9.96003 15.5647 12.6582C15.5647 15.3564 13.4237 17.5964 10.7035 17.5964Z" fill="#DAC5A7"/>
<path d="M23.6121 18.8437V11.3091C23.6121 9.19639 24.7708 7.8473 26.6346 7.8473C27.3399 7.8473 28.0199 8.02549 28.6244 8.38185V6.77821C27.9947 6.47276 27.2643 6.32003 26.5087 6.32003C23.6877 6.32003 22.0505 8.35639 22.0505 11.2328V18.8437H23.6121Z" fill="#DAC5A7"/>
<path d="M32.5238 3.52003C33.1535 3.52003 33.6321 3.01094 33.6321 2.34912C33.6321 1.6873 33.1535 1.17821 32.5238 1.17821C31.8942 1.17821 31.3904 1.6873 31.3904 2.34912C31.3904 3.01094 31.8942 3.52003 32.5238 3.52003ZM31.743 6.49821V18.8437H33.3047V6.49821H31.743Z" fill="#DAC5A7"/>
<path d="M40.624 18.8437V13.32H42.4123C42.5383 13.7018 42.7398 14.0837 43.0672 14.4146L47.4246 18.8437H49.4648L44.1503 13.4218C43.8984 13.1673 43.7473 12.9128 43.7473 12.6582C43.7473 12.3782 43.8984 12.1491 44.1503 11.8946L49.49 6.49821H47.5254L43.1176 10.9528C42.8153 11.2582 42.5887 11.5891 42.4627 11.92H40.624V0.796394H39.0624V18.8437H40.624Z" fill="#DAC5A7"/>
<path d="M54.5166 19.0473C55.1462 19.0473 55.65 18.5382 55.65 17.8764C55.65 17.24 55.1462 16.7564 54.5166 16.7564C53.8869 16.7564 53.3831 17.24 53.3831 17.8764C53.3831 18.5382 53.8869 19.0473 54.5166 19.0473Z" fill="#DAC5A7"/>
</g>
<defs>
<filter id="filter0_d_2857_733" x="0" y="0" width="60.1739" height="28" filterUnits="userSpaceOnUse" color-interpolation-filters="sRGB">
<feFlood flood-opacity="0" result="BackgroundImageFix"/>
<feColorMatrix in="SourceAlpha" type="matrix" values="0 0 0 0 0 0 0 0 0 0 0 0 0 0 0 0 0 0 127 0" result="hardAlpha"/>
<feOffset dy="4"/>
<feGaussianBlur stdDeviation="2"/>
<feComposite in2="hardAlpha" operator="out"/>
<feColorMatrix type="matrix" values="0 0 0 0 0 0 0 0 0 0 0 0 0 0 0 0 0 0 0.25 0"/>
<feBlend mode="normal" in2="BackgroundImageFix" result="effect1_dropShadow_2857_733"/>
<feBlend mode="normal" in="SourceGraphic" in2="effect1_dropShadow_2857_733" result="shape"/>
</filter>
</defs>
</svg>
