<svg width="152" height="19" viewBox="0 0 152 19" fill="none" xmlns="http://www.w3.org/2000/svg">
<path d="M75.693 16.374H70.573V2.68599H75.693V16.374ZM71.073 15.874H75.193V3.18599H71.073V15.874ZM82.817 16.374H77.8V2.68599H88.282C89.7836 2.56439 91.279 2.98596 92.496 3.87399C93.0199 4.3533 93.426 4.94718 93.6825 5.60928C93.9391 6.27139 94.0392 6.98382 93.975 7.69099C94.0498 8.91296 93.6609 10.1182 92.886 11.066C91.969 12.118 90.443 12.66 88.351 12.679C87.824 12.693 83.875 12.679 82.82 12.679L82.817 16.374ZM78.297 15.874H82.317V12.174H82.568C82.619 12.174 87.746 12.19 88.339 12.174C90.288 12.157 91.689 11.674 92.508 10.731C93.1978 9.87344 93.5404 8.78814 93.468 7.68999C93.5295 7.05636 93.4442 6.41708 93.2188 5.82173C92.9933 5.22638 92.6338 4.69096 92.168 4.25699C91.0396 3.44709 89.659 3.06692 88.275 3.18499H78.3L78.297 15.874ZM87.22 9.60399H82.283V5.87799H87.253C87.6053 5.82931 87.9642 5.87043 88.2963 5.99752C88.6285 6.12462 88.9232 6.33357 89.153 6.60499C89.3615 6.95193 89.4598 7.35397 89.435 7.75799C89.4537 8.13309 89.3727 8.50646 89.2 8.83999C88.9629 9.12587 88.6562 9.34594 88.3094 9.47904C87.9627 9.61214 87.5875 9.65379 87.22 9.59999V9.60399ZM82.783 9.10399H87.22C88.04 9.10399 88.548 8.93299 88.773 8.58099C88.8969 8.32514 88.953 8.04175 88.936 7.75799C88.9579 7.46005 88.8933 7.16213 88.75 6.89999L88.744 6.89099C88.506 6.54099 88.033 6.37799 87.253 6.37799H82.783V9.10399ZM103.1 16.576C98.61 16.576 95.93 15.461 94.909 13.168C94.7419 12.7251 94.6285 12.2638 94.571 11.794L94.527 11.506H99.869L99.904 11.716C99.9451 11.9292 100.036 12.1299 100.168 12.302C100.379 12.557 101.083 12.985 103.419 12.985C106.227 12.985 106.227 12.492 106.227 12.227C106.227 11.78 105.902 11.627 103.612 11.383L103.177 11.342C102.315 11.261 101.225 11.158 100.727 11.115C96.527 10.735 94.652 9.42999 94.652 6.88499C94.652 4.21199 97.843 2.48499 102.782 2.48499C106.811 2.48499 109.407 3.54699 110.496 5.64399C110.754 6.13177 110.928 6.65998 111.009 7.20599L111.044 7.48699H105.696L105.674 7.26099C105.653 7.08437 105.578 6.91868 105.458 6.78699C105.258 6.51899 104.626 6.07599 102.664 6.07599C100.255 6.07599 99.923 6.38399 99.923 6.71599C99.923 7.15899 100.684 7.31599 103.123 7.57699C104.14 7.65999 105.775 7.82799 106.335 7.89599C109.856 8.27799 111.427 9.55099 111.427 12.025C111.428 14.1 109.983 16.576 103.1 16.576ZM95.111 12.006C95.1611 12.3358 95.2473 12.659 95.368 12.97C96.298 15.059 98.828 16.076 103.1 16.076C106.672 16.076 110.931 15.376 110.931 12.025C110.931 9.83199 109.541 8.74599 106.282 8.39299C105.722 8.32499 104.097 8.15799 103.082 8.07399C100.482 7.79199 99.425 7.64199 99.425 6.71599C99.425 5.75799 100.564 5.57599 102.666 5.57599C104.327 5.57599 105.4 5.87599 105.855 6.48099C105.979 6.63004 106.073 6.80194 106.131 6.98699H110.465C110.378 6.60023 110.24 6.22668 110.055 5.87599C109.055 3.95699 106.612 2.98499 102.784 2.98499C98.149 2.98499 95.154 4.51599 95.154 6.88499C95.154 9.14499 96.835 10.261 100.773 10.617C101.273 10.66 102.362 10.763 103.226 10.845L103.664 10.886C105.791 11.11 106.729 11.25 106.729 12.227C106.729 13.279 105.516 13.485 103.421 13.485C101.483 13.485 100.259 13.194 99.786 12.621C99.6402 12.4383 99.5302 12.2296 99.462 12.006H95.111ZM120.927 16.559C115.707 16.559 112.827 14.448 112.827 10.614V2.68599H117.879V10.614C117.879 11.929 119.056 12.683 121.107 12.683C123.067 12.683 124.284 11.896 124.284 10.631V2.68599H129.284V11.034C129.289 14.545 126.24 16.559 120.924 16.559H120.927ZM113.327 3.18599V10.614C113.327 15.352 118.085 16.059 120.927 16.059C123.865 16.059 128.792 15.406 128.792 11.034V3.18599H124.792V10.631C124.792 12.181 123.348 13.183 121.115 13.183C118.781 13.183 117.387 12.223 117.387 10.614V3.18599H113.327ZM150.472 16.374H145.704V10.194L143 16.374H138.841L136.165 10.206V16.374H131.38V2.68599H137.674L140.944 10.233L144.372 2.68599H150.478L150.472 16.374ZM146.204 15.874H149.972V3.18599H144.69L140.928 11.465L137.342 3.18599H131.876V15.874H135.661V7.79999L139.161 15.877H142.661L146.198 7.81199L146.204 15.874ZM6.054 2.93599H1.5V16.124H14.084V12.613H6.054V2.93599ZM23.276 2.63599C17.463 2.63599 14.406 5.39099 14.406 9.43599C14.406 14.006 17.615 16.324 23.276 16.324C29.508 16.324 32.129 13.636 32.129 9.43599C32.129 5.17099 29.172 2.63399 23.276 2.63399V2.63599ZM23.259 6.06299C23.6547 6.06113 24.0502 6.08417 24.443 6.13199L19.352 11.223C19.1111 10.6781 18.9936 10.0866 19.008 9.49099C19.008 7.42199 20.05 6.06099 23.259 6.06099V6.06299ZM23.276 12.951C22.8947 12.9527 22.5137 12.9313 22.135 12.887L27.235 7.78699C27.4669 8.32289 27.5779 8.90332 27.56 9.48699C27.56 11.5 26.6 12.949 23.276 12.949V12.951ZM41.152 11.151H45.839C45.77 11.4763 45.6262 11.781 45.419 12.041C44.4473 12.8326 43.2072 13.2178 41.958 13.116C41.3292 13.1833 40.6934 13.1146 40.0935 12.9146C39.4936 12.7147 38.9436 12.3881 38.481 11.957C38.0071 11.2619 37.782 10.4271 37.842 9.58799C37.7653 8.70873 38.0101 7.83151 38.531 7.11899C39.186 6.37899 40.295 6.05999 41.925 6.05999C42.9621 5.97412 43.9979 6.24047 44.865 6.81599C45.1383 7.03307 45.3426 7.3249 45.453 7.65599H49.8C49.7684 7.11046 49.6372 6.57532 49.413 6.07699C48.372 3.95999 45.952 2.69999 41.837 2.69999C38.258 2.69999 35.856 3.79199 34.529 5.43899C33.6526 6.62835 33.2027 8.07843 33.252 9.55499C33.1953 11.065 33.6336 12.5521 34.5 13.79C35.811 15.49 38.146 16.326 40.952 16.326C42.8175 16.4561 44.6703 15.9336 46.193 14.848L46.311 16.124H49.922V8.31199H41.152V11.151ZM60.171 2.63299C54.359 2.63299 51.301 5.38799 51.301 9.43299C51.301 14.003 54.509 16.321 60.171 16.321C66.404 16.321 69.025 13.633 69.025 9.43299C69.025 5.17099 66.068 2.63399 60.171 2.63399V2.63299ZM60.155 6.05999C60.5403 6.05885 60.9253 6.08089 61.308 6.12599L56.237 11.2C56.0036 10.6611 55.89 10.0781 55.904 9.49099C55.9 7.42199 56.946 6.06099 60.155 6.06099V6.05999ZM60.171 12.948C59.7796 12.9497 59.3885 12.9269 59 12.88L64.117 7.76199C64.3577 8.30502 64.4729 8.89531 64.454 9.48899C64.456 11.5 63.5 12.949 60.171 12.949V12.948Z" fill="#DAC5A7"/>
</svg>
