<svg width="24" height="24" viewBox="0 0 24 24" fill="none" xmlns="http://www.w3.org/2000/svg">
<path d="M20.0625 10.5C20.0625 12.5672 19.3406 14.4553 18.03 15.8185C16.8113 17.086 15.1603 17.8125 13.5 17.8125C11.6794 17.8125 10.5422 17.1497 9.87844 16.5338L8.7975 21.1275C8.76872 21.2512 8.69896 21.3615 8.59956 21.4404C8.50016 21.5194 8.37696 21.5625 8.25 21.5625C8.20675 21.5626 8.16364 21.5575 8.12156 21.5475C7.97638 21.5134 7.85067 21.4231 7.77209 21.2963C7.69351 21.1696 7.66848 21.0168 7.7025 20.8716L10.7025 8.1216C10.718 8.0483 10.748 7.97885 10.7907 7.9173C10.8334 7.85575 10.888 7.80335 10.9512 7.76318C11.0144 7.72301 11.085 7.69587 11.1589 7.68336C11.2328 7.67085 11.3084 7.67322 11.3813 7.69033C11.4542 7.70744 11.523 7.73894 11.5836 7.78299C11.6442 7.82704 11.6954 7.88275 11.7341 7.94685C11.7729 8.01095 11.7985 8.08215 11.8094 8.15627C11.8202 8.23039 11.8162 8.30593 11.7975 8.37847L10.1953 15.1875C10.4578 15.5935 11.3634 16.6875 13.5 16.6875C16.1728 16.6875 18.9375 14.3728 18.9375 10.5C18.9372 9.43612 18.6921 8.38653 18.2213 7.43245C17.7505 6.47836 17.0666 5.64534 16.2224 4.9978C15.3783 4.35025 14.3965 3.90554 13.353 3.69804C12.3095 3.49055 11.2323 3.52584 10.2046 3.80117C9.17694 4.07651 8.22636 4.58452 7.42639 5.28592C6.62641 5.98731 5.99847 6.86331 5.59113 7.84616C5.18378 8.82901 5.00795 9.89238 5.07722 10.954C5.14649 12.0157 5.45902 13.0472 5.99063 13.9688C6.02917 14.0328 6.05457 14.1039 6.06535 14.1778C6.07612 14.2518 6.07205 14.3271 6.05338 14.3995C6.0347 14.4719 6.00179 14.5398 5.95658 14.5993C5.91136 14.6588 5.85474 14.7087 5.79002 14.746C5.72531 14.7834 5.65379 14.8075 5.57966 14.8169C5.50552 14.8264 5.43025 14.8209 5.35824 14.8009C5.28623 14.7809 5.21893 14.7468 5.16027 14.7005C5.1016 14.6542 5.05275 14.5967 5.01656 14.5313C4.3986 13.4603 4.03526 12.2615 3.95465 11.0276C3.87404 9.79369 4.07831 8.5578 4.55167 7.41548C5.02504 6.27316 5.7548 5.25502 6.68453 4.43981C7.61425 3.62459 8.71903 3.03415 9.91342 2.71414C11.1078 2.39413 12.3598 2.35312 13.5726 2.5943C14.7853 2.83548 15.9264 3.35237 16.9074 4.105C17.8885 4.85764 18.6833 5.82584 19.2304 6.93474C19.7775 8.04364 20.0622 9.26352 20.0625 10.5Z" fill="#DAC5A7"/>
</svg>
