<svg width="24" height="24" viewBox="0 0 24 24" fill="none" xmlns="http://www.w3.org/2000/svg">
<path d="M23.0158 6.53442C22.9734 6.43234 22.9019 6.345 22.8102 6.28331C22.7185 6.22162 22.6107 6.18831 22.5001 6.18754H19.5376C19.1715 5.515 18.6328 4.95209 17.9771 4.55666C17.3213 4.16122 16.5721 3.94753 15.8064 3.93754C14.6559 3.93254 13.5503 4.3835 12.7316 5.19172C11.9128 5.99994 11.4476 7.09961 11.4376 8.25004V9.06567C7.46265 8.11879 4.1814 4.88442 4.1439 4.85629C4.07162 4.78494 3.98138 4.73449 3.88274 4.7103C3.78411 4.6861 3.68076 4.68906 3.58367 4.71886C3.48659 4.74866 3.39938 4.80419 3.3313 4.87955C3.26323 4.95492 3.21682 5.04731 3.19702 5.14692C2.3814 9.60942 3.72202 12.5907 4.98765 14.3063C5.6589 15.2249 6.48347 16.0209 7.42515 16.6594C5.97202 18.4219 3.5814 19.3407 3.55327 19.35C3.4734 19.3795 3.40139 19.4269 3.34285 19.4887C3.28431 19.5505 3.24082 19.6249 3.21577 19.7063C3.18917 19.7857 3.18125 19.8701 3.19263 19.953C3.20402 20.036 3.23439 20.1152 3.2814 20.1844C3.37515 20.325 4.2939 21.5625 7.50015 21.5625C14.0345 21.5625 19.5001 16.5094 20.0251 10.0219L22.8939 7.14379C22.9752 7.0676 23.0307 6.9679 23.0525 6.85864C23.0744 6.74938 23.0615 6.63602 23.0158 6.53442ZM19.0783 9.37504C18.9808 9.47233 18.9238 9.603 18.9189 9.74067C18.5345 15.7407 13.5189 20.4375 7.50015 20.4375C6.19702 20.4375 5.36265 20.2125 4.86577 19.9875C5.92515 19.4532 7.65952 18.4032 8.7189 16.8094C8.7611 16.7433 8.7895 16.6694 8.80239 16.5921C8.81528 16.5147 8.81239 16.4356 8.7939 16.3594C8.77391 16.2815 8.73769 16.2086 8.68761 16.1456C8.63753 16.0826 8.57471 16.0309 8.50327 15.9938C8.48452 15.9938 7.07827 15.2625 5.85952 13.5938C4.4064 11.6063 3.83452 9.17817 4.15327 6.37504C5.52202 7.53754 8.47515 9.73129 11.9064 10.3032C11.9872 10.3185 12.0703 10.3157 12.1498 10.2948C12.2294 10.274 12.3032 10.2357 12.3661 10.1827C12.4289 10.1297 12.4792 10.0634 12.5132 9.98855C12.5472 9.91371 12.5641 9.83223 12.5626 9.75004V8.25004C12.5701 7.40046 12.9134 6.58835 13.5177 5.9911C14.122 5.39386 14.938 5.06003 15.7876 5.06254C16.4015 5.0714 17 5.25634 17.5118 5.59537C18.0237 5.93439 18.4275 6.41326 18.6751 6.97504C18.7179 7.0761 18.7898 7.16215 18.8816 7.22225C18.9734 7.28235 19.081 7.31378 19.1908 7.31254H21.1408L19.0783 9.37504Z" fill="#DAC5A7"/>
</svg>
