<svg width="9" height="9" viewBox="0 0 9 9" fill="none" xmlns="http://www.w3.org/2000/svg">
<path d="M8.74623 0.375V6.875C8.74623 6.97446 8.70672 7.06984 8.6364 7.14017C8.56607 7.21049 8.47069 7.25 8.37123 7.25C8.27177 7.25 8.17639 7.21049 8.10607 7.14017C8.03574 7.06984 7.99623 6.97446 7.99623 6.875V1.28125L0.633731 8.6375C0.564112 8.70712 0.469688 8.74623 0.371231 8.74623C0.272774 8.74623 0.17835 8.70712 0.108731 8.6375C0.0391117 8.56788 7.33559e-10 8.47346 0 8.375C-7.33559e-10 8.27654 0.0391117 8.18212 0.108731 8.1125L7.46498 0.75H1.87123C1.77177 0.75 1.67639 0.710491 1.60607 0.640165C1.53574 0.569839 1.49623 0.474456 1.49623 0.375C1.49623 0.275544 1.53574 0.180161 1.60607 0.109835C1.67639 0.0395088 1.77177 0 1.87123 0H8.37123C8.47069 0 8.56607 0.0395088 8.6364 0.109835C8.70672 0.180161 8.74623 0.275544 8.74623 0.375Z" fill="#DAC5A7"/>
</svg>
